<svg width="400" height="281" viewBox="0 0 400 281" fill="none" xmlns="http://www.w3.org/2000/svg">
<path opacity="0.5" fill-rule="evenodd" clip-rule="evenodd" d="M381 281C391.493 281 400 272.493 400 262C400 251.507 391.493 243 381 243C370.507 243 362 251.507 362 262C362 272.493 370.507 281 381 281Z" fill="white" fill-opacity="0.1"/>
<path opacity="0.5" fill-rule="evenodd" clip-rule="evenodd" d="M313 176C323.493 176 332 167.493 332 157C332 146.507 323.493 138 313 138C302.507 138 294 146.507 294 157C294 167.493 302.507 176 313 176Z" fill="white" fill-opacity="0.1"/>
<path opacity="0.5" fill-rule="evenodd" clip-rule="evenodd" d="M227 133C237.493 133 246 124.493 246 114C246 103.507 237.493 95 227 95C216.507 95 208 103.507 208 114C208 124.493 216.507 133 227 133Z" fill="white" fill-opacity="0.1"/>
<path opacity="0.5" fill-rule="evenodd" clip-rule="evenodd" d="M19 38C29.4934 38 38 29.4934 38 19C38 8.50659 29.4934 0 19 0C8.50659 0 0 8.50659 0 19C0 29.4934 8.50659 38 19 38Z" fill="white" fill-opacity="0.1"/>
</svg>
