<svg width="290" height="168" viewBox="0 0 290 168" fill="none" xmlns="http://www.w3.org/2000/svg">
<path fill-rule="evenodd" clip-rule="evenodd" d="M290 0V168L99 168L99 0L290 0Z" fill="#4AF6CD"/>
<path d="M134.64 60.22C137.8 60.22 140.58 60.68 142.98 61.6C145.42 62.52 147.6 63.9 149.52 65.74L144.54 71.62C141.66 69.34 138.64 68.2 135.48 68.2C133.84 68.2 132.58 68.52 131.7 69.16C130.86 69.76 130.44 70.62 130.44 71.74C130.44 72.54 130.66 73.2 131.1 73.72C131.54 74.24 132.28 74.74 133.32 75.22C134.36 75.7 136 76.3 138.24 77.02C142.52 78.38 145.64 80.1 147.6 82.18C149.6 84.22 150.6 87.06 150.6 90.7C150.6 93.34 149.92 95.68 148.56 97.72C147.2 99.72 145.22 101.28 142.62 102.4C140.06 103.52 137.04 104.08 133.56 104.08C126.92 104.08 121.5 102.06 117.3 98.02L122.76 91.96C126.08 94.68 129.54 96.04 133.14 96.04C135.02 96.04 136.48 95.64 137.52 94.84C138.56 94 139.08 92.9 139.08 91.54C139.08 90.58 138.88 89.8 138.48 89.2C138.08 88.56 137.36 88 136.32 87.52C135.32 87 133.84 86.44 131.88 85.84C127.16 84.36 123.84 82.58 121.92 80.5C120 78.42 119.04 75.8 119.04 72.64C119.04 70.16 119.7 67.98 121.02 66.1C122.38 64.22 124.24 62.78 126.6 61.78C129 60.74 131.68 60.22 134.64 60.22ZM188.045 89.02C188.045 91.9 187.405 94.48 186.125 96.76C184.885 99.04 183.005 100.84 180.485 102.16C177.965 103.44 174.885 104.08 171.245 104.08C165.725 104.08 161.545 102.74 158.705 100.06C155.865 97.34 154.445 93.66 154.445 89.02V61.3H165.545V88.66C165.545 91.18 165.985 93.04 166.865 94.24C167.785 95.4 169.245 95.98 171.245 95.98C173.245 95.98 174.685 95.38 175.565 94.18C176.445 92.98 176.885 91.14 176.885 88.66V61.3H188.045V89.02ZM208.052 87.64H204.992V103H193.892V61.3H208.352C214.232 61.3 218.612 62.36 221.492 64.48C224.412 66.6 225.872 69.86 225.872 74.26C225.872 76.9 225.252 79.1 224.012 80.86C222.812 82.62 220.872 84.2 218.192 85.6L228.572 103H216.212L208.052 87.64ZM204.992 80.08H208.712C212.552 80.08 214.472 78.14 214.472 74.26C214.472 72.46 213.932 71.14 212.852 70.3C211.812 69.46 210.232 69.04 208.112 69.04H204.992V80.08ZM231.099 103V61.3H256.719L255.579 69.16H242.199V79.18H253.959V87.04H242.199V103H231.099Z" fill="white"/>
<path d="M22.08 60.22C27.64 60.22 32.42 61.98 36.42 65.5L30.96 71.2C29.44 70.12 28.06 69.34 26.82 68.86C25.62 68.34 24.24 68.08 22.68 68.08C19.68 68.08 17.32 69.24 15.6 71.56C13.92 73.88 13.08 77.42 13.08 82.18C13.08 85.66 13.36 88.42 13.92 90.46C14.48 92.46 15.32 93.9 16.44 94.78C17.6 95.66 19.08 96.1 20.88 96.1C22.68 96.1 24.32 95.72 25.8 94.96V86.38H21.06L19.98 78.76H36.54V99.52C34.38 100.96 31.94 102.08 29.22 102.88C26.5 103.68 23.82 104.08 21.18 104.08C8.14 104.08 1.62 96.76 1.62 82.12C1.62 77.56 2.5 73.64 4.26 70.36C6.06 67.04 8.5 64.52 11.58 62.8C14.66 61.08 18.16 60.22 22.08 60.22ZM59.6648 60.22C65.7048 60.22 70.4048 62.14 73.7648 65.98C77.1248 69.82 78.8048 75.2 78.8048 82.12C78.8048 86.64 78.0448 90.56 76.5248 93.88C75.0448 97.16 72.8648 99.68 69.9848 101.44C67.1048 103.2 63.6648 104.08 59.6648 104.08C53.6248 104.08 48.9248 102.16 45.5648 98.32C42.2448 94.48 40.5848 89.08 40.5848 82.12C40.5848 77.6 41.3248 73.7 42.8048 70.42C44.3248 67.14 46.5048 64.62 49.3448 62.86C52.2248 61.1 55.6648 60.22 59.6648 60.22ZM59.6648 68.2C57.0648 68.2 55.1448 69.28 53.9048 71.44C52.7048 73.6 52.1048 77.16 52.1048 82.12C52.1048 87.08 52.7248 90.66 53.9648 92.86C55.2048 95.02 57.1048 96.1 59.6648 96.1C62.3048 96.1 64.2248 95.02 65.4248 92.86C66.6248 90.7 67.2248 87.12 67.2248 82.12C67.2248 77.16 66.6248 73.6 65.4248 71.44C64.2248 69.28 62.3048 68.2 59.6648 68.2Z" fill="white"/>
<rect x="89" y="83" width="20" height="1" fill="white"/>
</svg>
