<svg width="997" height="494" viewBox="0 0 997 494" fill="none" xmlns="http://www.w3.org/2000/svg">
<g opacity="0.29827">
<path d="M1008.08 161.448L443.182 -358.858V-749.19L28.1096 -772C24.9043 -764.456 4.36709 -742.714 7.57176 -730.596C11.43 -716.102 30.8387 -720.735 36.4776 -711.409C43.0661 -700.42 31.7291 -655.749 28.3457 -642.86C21.8759 -618.445 7.09676 -598.665 2.82235 -574.25C-4.35982 -533.263 10.1824 -536.53 37.7242 -510.927C84.141 -467.742 46.9244 -422.952 58.6176 -372.223C68.1146 -330.878 109.605 -309.554 124.8 -268.211C136.553 -236.37 152.697 -228.233 177.746 -204.947C177.153 -219.084 164.51 -260.785 188.253 -257.102C211.817 -253.478 202.736 -218.669 207.247 -204.115C211.045 -191.997 237.933 -167.761 215.616 -156.593C208.196 -152.91 187.066 -167.582 178.577 -171.503C184.572 -152.791 180.774 -133.367 190.271 -115.487C201.608 -94.162 213.835 -102.359 228.853 -90.7754C244.344 -78.8355 242.683 -65.1137 235.797 -47.0554C228.615 -28.2247 221.196 -31.1352 232.592 -8.44342C240.843 7.95119 254.85 28.7421 266.9 41.2164C273.904 48.4634 281.502 50.1267 288.506 59.3932C294.323 67.1155 292.067 77.2142 299.012 84.1638C310.883 96.1037 331.006 96.282 340.384 111.904C350.831 129.309 338.96 142.437 369.706 140.833C371.309 175.643 377.897 207.185 377.541 241.994C394.695 248.825 422.414 240.687 440.399 237.063C458.266 261.18 481.355 244.429 501.774 257.558C510.678 263.26 508.837 277.517 514.239 282.506C525.339 292.723 533.529 286.308 547.301 289.872C557.51 292.486 565.404 299.97 575.138 302.703C584.338 305.257 599.475 299.258 606.301 307.396C614.492 317.138 600.78 334.958 613.127 342.799C623.395 349.333 638.115 333.77 648.088 336.027C659.721 338.7 693.079 369.174 701.271 379.212C710.59 390.677 719.969 412.062 725.25 426.793C733.501 449.841 732.373 461.127 749.408 477.998C760.27 488.75 749.942 489.522 767.63 492.67C779.204 494.749 794.518 486.374 806.212 485.067C830.549 482.394 855.122 487.027 879.102 482.453C901.421 478.176 922.729 471.166 945.64 467.899C965.465 465.048 1000.37 467.246 1017.94 457.801C1036.99 447.643 1038.71 424.654 1011.17 428.932C1008.97 414.26 1018.77 394.003 1007.85 383.847C1023.04 363.056 1028.56 348.384 1030.93 322.959C1032 311.792 1032.48 299.436 1038 290.05C1043.4 280.783 1058.59 275.259 1061.56 267.299C1066.13 254.943 1058.83 249.419 1053.25 242.528C1049.69 238.073 1039.54 240.212 1036.63 236.291C1031.23 229.103 1036.57 221.678 1033.6 214.431C1024.94 193.462 1014.61 185.205 1008.08 161.444C1008.26 165.424 1008.44 169.463 1008.2 173.384" stroke="white" stroke-width="2" stroke-linecap="round" stroke-linejoin="round"/>
</g>
<path d="M726.47 85C717.902 108.381 737.969 116.586 754.031 131.868C758.79 136.396 759.244 143.878 754.235 148.403C743.462 158.134 702.619 143.977 705.21 156.806C707.886 170.055 742.417 188.592 743.973 189.86C757.64 200.992 762.091 229.235 754.564 244.719C749.208 255.737 713.698 252.023 702.528 248.354C629.38 224.326 662.341 227.192 580.172 219.73C573.882 219.159 567.291 218.867 561.25 220.711C555.027 222.61 555.225 230.399 557.313 234.611C564.231 248.567 595.205 272.238 586.869 290.583C584.312 296.212 578.319 299.768 575.62 305.33C573.506 309.688 573.741 314.832 572.801 319.583" stroke="white" stroke-width="2"/>
<path d="M724.541 87.5C718.227 115.209 733.015 124.932 744.85 143.042C748.357 148.409 747.899 155.555 745 162.638C738.048 179.625 716.463 170.772 698.5 167C670.787 161.18 635.979 93.5624 621.671 118C614.442 130.347 627.525 151.118 613.5 172.5C591.74 205.674 546.902 200.974 493 172.5C439.098 144.026 375.833 189.016 362 224" stroke="white" stroke-width="2"/>
<path d="M727 85C764 149 738.529 173.576 721.742 181C695.844 192.454 672.699 194 664.5 228C661.146 241.909 667.185 255.977 683.699 275.5C709.5 306 718.903 352.15 658.517 360.5" stroke="white" stroke-width="2"/>
<path d="M723.726 81C790.701 187.253 766.034 215.66 747.038 221.401C717.73 230.258 678.291 238.254 678.5 286C678.586 305.532 701.182 315.295 728.251 349.341C770.54 402.529 786 417 722.826 467.241" stroke="white" stroke-width="2"/>
<path fill-rule="evenodd" clip-rule="evenodd" d="M569.5 326C573.09 326 576 323.09 576 319.5C576 315.91 573.09 313 569.5 313C565.91 313 563 315.91 563 319.5C563 323.09 565.91 326 569.5 326Z" fill="#4AF6CD"/>
<path fill-rule="evenodd" clip-rule="evenodd" d="M360.5 231C364.09 231 367 228.09 367 224.5C367 220.91 364.09 218 360.5 218C356.91 218 354 220.91 354 224.5C354 228.09 356.91 231 360.5 231Z" fill="#4AF6CD"/>
<path fill-rule="evenodd" clip-rule="evenodd" d="M655.5 366C659.09 366 662 363.09 662 359.5C662 355.91 659.09 353 655.5 353C651.91 353 649 355.91 649 359.5C649 363.09 651.91 366 655.5 366Z" fill="#4AF6CD"/>
<path fill-rule="evenodd" clip-rule="evenodd" d="M720.5 474C724.09 474 727 471.09 727 467.5C727 463.91 724.09 461 720.5 461C716.91 461 714 463.91 714 467.5C714 471.09 716.91 474 720.5 474Z" fill="#4AF6CD"/>
<path opacity="0.5" fill-rule="evenodd" clip-rule="evenodd" d="M726 484C736.493 484 745 475.493 745 465C745 454.507 736.493 446 726 446C715.507 446 707 454.507 707 465C707 475.493 715.507 484 726 484Z" fill="white" fill-opacity="0.1"/>
<path opacity="0.5" fill-rule="evenodd" clip-rule="evenodd" d="M658 379C668.493 379 677 370.493 677 360C677 349.507 668.493 341 658 341C647.507 341 639 349.507 639 360C639 370.493 647.507 379 658 379Z" fill="white" fill-opacity="0.1"/>
<path opacity="0.5" fill-rule="evenodd" clip-rule="evenodd" d="M572 336C582.493 336 591 327.493 591 317C591 306.507 582.493 298 572 298C561.507 298 553 306.507 553 317C553 327.493 561.507 336 572 336Z" fill="white" fill-opacity="0.1"/>
<path opacity="0.5" fill-rule="evenodd" clip-rule="evenodd" d="M364 241C374.493 241 383 232.493 383 222C383 211.507 374.493 203 364 203C353.507 203 345 211.507 345 222C345 232.493 353.507 241 364 241Z" fill="white" fill-opacity="0.1"/>
<path fill-rule="evenodd" clip-rule="evenodd" d="M657 363C658.657 363 660 361.657 660 360C660 358.343 658.657 357 657 357C655.343 357 654 358.343 654 360C654 361.657 655.343 363 657 363Z" fill="#4AF6CD"/>
<path fill-rule="evenodd" clip-rule="evenodd" d="M657 363C658.657 363 660 361.657 660 360C660 358.343 658.657 357 657 357C655.343 357 654 358.343 654 360C654 361.657 655.343 363 657 363Z" fill="#4AF6CD"/>
<path fill-rule="evenodd" clip-rule="evenodd" d="M572 323C573.657 323 575 321.657 575 320C575 318.343 573.657 317 572 317C570.343 317 569 318.343 569 320C569 321.657 570.343 323 572 323Z" fill="#4AF6CD"/>
<path fill-rule="evenodd" clip-rule="evenodd" d="M721 471C722.657 471 724 469.657 724 468C724 466.343 722.657 465 721 465C719.343 465 718 466.343 718 468C718 469.657 719.343 471 721 471Z" fill="#4AF6CD"/>
<path fill-rule="evenodd" clip-rule="evenodd" d="M361 228C362.657 228 364 226.657 364 225C364 223.343 362.657 222 361 222C359.343 222 358 223.343 358 225C358 226.657 359.343 228 361 228Z" fill="#4AF6CD"/>
<path fill-rule="evenodd" clip-rule="evenodd" d="M725.5 91C729.09 91 732 88.0899 732 84.5C732 80.9101 729.09 78 725.5 78C721.91 78 719 80.9101 719 84.5C719 88.0899 721.91 91 725.5 91Z" fill="#4AF6CD"/>
<path d="M484.707 310.976L482.467 322H480.515L478.483 312.768L476.435 322H474.531L472.291 310.976H473.779L475.555 320.672L477.683 310.976H479.299L481.475 320.672L483.315 310.976H484.707ZM492.841 317.536C492.841 317.781 492.83 318.032 492.809 318.288H487.433C487.497 319.216 487.732 319.899 488.137 320.336C488.542 320.773 489.065 320.992 489.705 320.992C490.11 320.992 490.484 320.933 490.825 320.816C491.166 320.699 491.524 320.512 491.897 320.256L492.537 321.136C491.641 321.84 490.66 322.192 489.593 322.192C488.42 322.192 487.502 321.808 486.841 321.04C486.19 320.272 485.865 319.216 485.865 317.872C485.865 316.997 486.004 316.224 486.281 315.552C486.569 314.869 486.974 314.336 487.497 313.952C488.03 313.568 488.654 313.376 489.369 313.376C490.489 313.376 491.348 313.744 491.945 314.48C492.542 315.216 492.841 316.235 492.841 317.536ZM491.385 317.104C491.385 316.272 491.22 315.637 490.889 315.2C490.558 314.763 490.062 314.544 489.401 314.544C488.196 314.544 487.54 315.429 487.433 317.2H491.385V317.104ZM497.48 313.376C498.056 313.376 498.573 313.456 499.032 313.616C499.491 313.776 499.928 314.016 500.344 314.336L499.72 315.264C499.336 315.019 498.968 314.837 498.616 314.72C498.275 314.603 497.912 314.544 497.528 314.544C497.048 314.544 496.669 314.645 496.392 314.848C496.115 315.04 495.976 315.307 495.976 315.648C495.976 315.989 496.104 316.256 496.36 316.448C496.627 316.64 497.101 316.827 497.784 317.008C498.723 317.243 499.421 317.563 499.88 317.968C500.349 318.373 500.584 318.928 500.584 319.632C500.584 320.464 500.259 321.099 499.608 321.536C498.968 321.973 498.184 322.192 497.256 322.192C495.976 322.192 494.915 321.824 494.072 321.088L494.856 320.192C495.571 320.736 496.36 321.008 497.224 321.008C497.779 321.008 498.216 320.896 498.536 320.672C498.867 320.437 499.032 320.123 499.032 319.728C499.032 319.44 498.973 319.211 498.856 319.04C498.739 318.859 498.536 318.704 498.248 318.576C497.96 318.437 497.539 318.293 496.984 318.144C496.088 317.909 495.437 317.595 495.032 317.2C494.637 316.805 494.44 316.304 494.44 315.696C494.44 315.259 494.568 314.864 494.824 314.512C495.091 314.149 495.453 313.872 495.912 313.68C496.381 313.477 496.904 313.376 497.48 313.376ZM506.917 321.616C506.362 322 505.733 322.192 505.029 322.192C504.314 322.192 503.754 321.989 503.349 321.584C502.954 321.168 502.757 320.571 502.757 319.792V314.704H501.285V313.568H502.757V311.664L504.229 311.488V313.568H506.229L506.069 314.704H504.229V319.728C504.229 320.165 504.303 320.485 504.453 320.688C504.613 320.88 504.874 320.976 505.237 320.976C505.567 320.976 505.941 320.864 506.357 320.64L506.917 321.616ZM515.476 310.784C516.212 310.784 516.842 310.891 517.364 311.104C517.887 311.307 518.394 311.627 518.884 312.064L518.052 312.992C517.636 312.661 517.226 312.421 516.82 312.272C516.426 312.112 515.999 312.032 515.54 312.032C514.964 312.032 514.49 312.165 514.116 312.432C513.743 312.699 513.556 313.088 513.556 313.6C513.556 313.92 513.62 314.192 513.748 314.416C513.876 314.629 514.111 314.827 514.452 315.008C514.804 315.189 515.311 315.381 515.972 315.584C516.666 315.797 517.242 316.027 517.7 316.272C518.159 316.517 518.527 316.859 518.804 317.296C519.092 317.723 519.236 318.267 519.236 318.928C519.236 319.568 519.076 320.133 518.756 320.624C518.447 321.115 517.994 321.499 517.396 321.776C516.81 322.053 516.111 322.192 515.3 322.192C513.775 322.192 512.527 321.717 511.556 320.768L512.388 319.84C512.836 320.203 513.29 320.48 513.748 320.672C514.207 320.853 514.719 320.944 515.284 320.944C515.967 320.944 516.532 320.779 516.98 320.448C517.428 320.107 517.652 319.616 517.652 318.976C517.652 318.613 517.583 318.315 517.444 318.08C517.306 317.835 517.066 317.616 516.724 317.424C516.394 317.232 515.908 317.04 515.268 316.848C514.138 316.507 513.311 316.096 512.788 315.616C512.266 315.136 512.004 314.485 512.004 313.664C512.004 313.109 512.148 312.613 512.436 312.176C512.735 311.739 513.146 311.397 513.668 311.152C514.202 310.907 514.804 310.784 515.476 310.784ZM525.363 313.376C526.131 313.376 526.728 313.605 527.155 314.064C527.592 314.523 527.811 315.152 527.811 315.952V322H526.339V316.16C526.339 315.563 526.222 315.141 525.987 314.896C525.763 314.651 525.432 314.528 524.995 314.528C524.558 314.528 524.168 314.656 523.827 314.912C523.486 315.168 523.166 315.531 522.867 316V322H521.395V310.192L522.867 310.032V314.736C523.528 313.829 524.36 313.376 525.363 313.376ZM533.938 313.376C535.122 313.376 536.039 313.771 536.69 314.56C537.351 315.349 537.682 316.421 537.682 317.776C537.682 318.651 537.533 319.424 537.234 320.096C536.935 320.757 536.503 321.275 535.938 321.648C535.373 322.011 534.701 322.192 533.922 322.192C532.738 322.192 531.815 321.797 531.154 321.008C530.493 320.219 530.162 319.147 530.162 317.792C530.162 316.917 530.311 316.149 530.61 315.488C530.909 314.816 531.341 314.299 531.906 313.936C532.471 313.563 533.149 313.376 533.938 313.376ZM533.938 314.56C532.477 314.56 531.746 315.637 531.746 317.792C531.746 319.936 532.471 321.008 533.922 321.008C535.373 321.008 536.098 319.931 536.098 317.776C536.098 315.632 535.378 314.56 533.938 314.56ZM543.778 313.376C544.076 313.376 544.354 313.408 544.61 313.472L544.338 314.912C544.082 314.848 543.836 314.816 543.602 314.816C543.079 314.816 542.658 315.008 542.338 315.392C542.018 315.776 541.767 316.373 541.586 317.184V322H540.114V313.568H541.378L541.522 315.28C541.746 314.651 542.05 314.176 542.434 313.856C542.818 313.536 543.266 313.376 543.778 313.376ZM552.169 317.536C552.169 317.781 552.159 318.032 552.137 318.288H546.761C546.825 319.216 547.06 319.899 547.465 320.336C547.871 320.773 548.393 320.992 549.033 320.992C549.439 320.992 549.812 320.933 550.153 320.816C550.495 320.699 550.852 320.512 551.225 320.256L551.865 321.136C550.969 321.84 549.988 322.192 548.921 322.192C547.748 322.192 546.831 321.808 546.169 321.04C545.519 320.272 545.193 319.216 545.193 317.872C545.193 316.997 545.332 316.224 545.609 315.552C545.897 314.869 546.303 314.336 546.825 313.952C547.359 313.568 547.983 313.376 548.697 313.376C549.817 313.376 550.676 313.744 551.273 314.48C551.871 315.216 552.169 316.235 552.169 317.536ZM550.713 317.104C550.713 316.272 550.548 315.637 550.217 315.2C549.887 314.763 549.391 314.544 548.729 314.544C547.524 314.544 546.868 315.429 546.761 317.2H550.713V317.104Z" fill="white"/>
<path d="M264.656 225H262.624L258.144 215.64C258.208 216.376 258.256 217.059 258.288 217.688C258.331 218.307 258.352 219.059 258.352 219.944V225H256.928V213.976H258.912L263.44 223.352C263.408 223.075 263.365 222.589 263.312 221.896C263.259 221.203 263.232 220.568 263.232 219.992V213.976H264.656V225ZM270.938 216.376C272.122 216.376 273.039 216.771 273.69 217.56C274.351 218.349 274.682 219.421 274.682 220.776C274.682 221.651 274.533 222.424 274.234 223.096C273.935 223.757 273.503 224.275 272.938 224.648C272.373 225.011 271.701 225.192 270.922 225.192C269.738 225.192 268.815 224.797 268.154 224.008C267.493 223.219 267.162 222.147 267.162 220.792C267.162 219.917 267.311 219.149 267.61 218.488C267.909 217.816 268.341 217.299 268.906 216.936C269.471 216.563 270.149 216.376 270.938 216.376ZM270.938 217.56C269.477 217.56 268.746 218.637 268.746 220.792C268.746 222.936 269.471 224.008 270.922 224.008C272.373 224.008 273.098 222.931 273.098 220.776C273.098 218.632 272.378 217.56 270.938 217.56ZM280.778 216.376C281.076 216.376 281.354 216.408 281.61 216.472L281.338 217.912C281.082 217.848 280.836 217.816 280.602 217.816C280.079 217.816 279.658 218.008 279.338 218.392C279.018 218.776 278.767 219.373 278.586 220.184V225H277.114V216.568H278.378L278.522 218.28C278.746 217.651 279.05 217.176 279.434 216.856C279.818 216.536 280.266 216.376 280.778 216.376ZM287.542 224.616C286.987 225 286.358 225.192 285.654 225.192C284.939 225.192 284.379 224.989 283.974 224.584C283.579 224.168 283.382 223.571 283.382 222.792V217.704H281.91V216.568H283.382V214.664L284.854 214.488V216.568H286.854L286.694 217.704H284.854V222.728C284.854 223.165 284.928 223.485 285.078 223.688C285.238 223.88 285.499 223.976 285.862 223.976C286.192 223.976 286.566 223.864 286.982 223.64L287.542 224.616ZM293.035 216.376C293.803 216.376 294.4 216.605 294.827 217.064C295.264 217.523 295.483 218.152 295.483 218.952V225H294.011V219.16C294.011 218.563 293.894 218.141 293.659 217.896C293.435 217.651 293.104 217.528 292.667 217.528C292.23 217.528 291.84 217.656 291.499 217.912C291.158 218.168 290.838 218.531 290.539 219V225H289.067V213.192L290.539 213.032V217.736C291.2 216.829 292.032 216.376 293.035 216.376ZM305.476 213.784C306.212 213.784 306.842 213.891 307.364 214.104C307.887 214.307 308.394 214.627 308.884 215.064L308.052 215.992C307.636 215.661 307.226 215.421 306.82 215.272C306.426 215.112 305.999 215.032 305.54 215.032C304.964 215.032 304.49 215.165 304.116 215.432C303.743 215.699 303.556 216.088 303.556 216.6C303.556 216.92 303.62 217.192 303.748 217.416C303.876 217.629 304.111 217.827 304.452 218.008C304.804 218.189 305.311 218.381 305.972 218.584C306.666 218.797 307.242 219.027 307.7 219.272C308.159 219.517 308.527 219.859 308.804 220.296C309.092 220.723 309.236 221.267 309.236 221.928C309.236 222.568 309.076 223.133 308.756 223.624C308.447 224.115 307.994 224.499 307.396 224.776C306.81 225.053 306.111 225.192 305.3 225.192C303.775 225.192 302.527 224.717 301.556 223.768L302.388 222.84C302.836 223.203 303.29 223.48 303.748 223.672C304.207 223.853 304.719 223.944 305.284 223.944C305.967 223.944 306.532 223.779 306.98 223.448C307.428 223.107 307.652 222.616 307.652 221.976C307.652 221.613 307.583 221.315 307.444 221.08C307.306 220.835 307.066 220.616 306.724 220.424C306.394 220.232 305.908 220.04 305.268 219.848C304.138 219.507 303.311 219.096 302.788 218.616C302.266 218.136 302.004 217.485 302.004 216.664C302.004 216.109 302.148 215.613 302.436 215.176C302.735 214.739 303.146 214.397 303.668 214.152C304.202 213.907 304.804 213.784 305.476 213.784ZM315.363 216.376C316.131 216.376 316.728 216.605 317.155 217.064C317.592 217.523 317.811 218.152 317.811 218.952V225H316.339V219.16C316.339 218.563 316.222 218.141 315.987 217.896C315.763 217.651 315.432 217.528 314.995 217.528C314.558 217.528 314.168 217.656 313.827 217.912C313.486 218.168 313.166 218.531 312.867 219V225H311.395V213.192L312.867 213.032V217.736C313.528 216.829 314.36 216.376 315.363 216.376ZM323.938 216.376C325.122 216.376 326.039 216.771 326.69 217.56C327.351 218.349 327.682 219.421 327.682 220.776C327.682 221.651 327.533 222.424 327.234 223.096C326.935 223.757 326.503 224.275 325.938 224.648C325.373 225.011 324.701 225.192 323.922 225.192C322.738 225.192 321.815 224.797 321.154 224.008C320.493 223.219 320.162 222.147 320.162 220.792C320.162 219.917 320.311 219.149 320.61 218.488C320.909 217.816 321.341 217.299 321.906 216.936C322.471 216.563 323.149 216.376 323.938 216.376ZM323.938 217.56C322.477 217.56 321.746 218.637 321.746 220.792C321.746 222.936 322.471 224.008 323.922 224.008C325.373 224.008 326.098 222.931 326.098 220.776C326.098 218.632 325.378 217.56 323.938 217.56ZM333.778 216.376C334.076 216.376 334.354 216.408 334.61 216.472L334.338 217.912C334.082 217.848 333.836 217.816 333.602 217.816C333.079 217.816 332.658 218.008 332.338 218.392C332.018 218.776 331.767 219.373 331.586 220.184V225H330.114V216.568H331.378L331.522 218.28C331.746 217.651 332.05 217.176 332.434 216.856C332.818 216.536 333.266 216.376 333.778 216.376ZM342.169 220.536C342.169 220.781 342.159 221.032 342.137 221.288H336.761C336.825 222.216 337.06 222.899 337.465 223.336C337.871 223.773 338.393 223.992 339.033 223.992C339.439 223.992 339.812 223.933 340.153 223.816C340.495 223.699 340.852 223.512 341.225 223.256L341.865 224.136C340.969 224.84 339.988 225.192 338.921 225.192C337.748 225.192 336.831 224.808 336.169 224.04C335.519 223.272 335.193 222.216 335.193 220.872C335.193 219.997 335.332 219.224 335.609 218.552C335.897 217.869 336.303 217.336 336.825 216.952C337.359 216.568 337.983 216.376 338.697 216.376C339.817 216.376 340.676 216.744 341.273 217.48C341.871 218.216 342.169 219.235 342.169 220.536ZM340.713 220.104C340.713 219.272 340.548 218.637 340.217 218.2C339.887 217.763 339.391 217.544 338.729 217.544C337.524 217.544 336.868 218.429 336.761 220.2H340.713V220.104Z" fill="white"/>
<path d="M619.711 459.784C620.447 459.784 621.076 459.891 621.599 460.104C622.121 460.307 622.628 460.627 623.119 461.064L622.287 461.992C621.871 461.661 621.46 461.421 621.055 461.272C620.66 461.112 620.233 461.032 619.775 461.032C619.199 461.032 618.724 461.165 618.351 461.432C617.977 461.699 617.791 462.088 617.791 462.6C617.791 462.92 617.855 463.192 617.983 463.416C618.111 463.629 618.345 463.827 618.687 464.008C619.039 464.189 619.545 464.381 620.207 464.584C620.9 464.797 621.476 465.027 621.935 465.272C622.393 465.517 622.761 465.859 623.039 466.296C623.327 466.723 623.471 467.267 623.471 467.928C623.471 468.568 623.311 469.133 622.991 469.624C622.681 470.115 622.228 470.499 621.631 470.776C621.044 471.053 620.345 471.192 619.535 471.192C618.009 471.192 616.761 470.717 615.791 469.768L616.623 468.84C617.071 469.203 617.524 469.48 617.983 469.672C618.441 469.853 618.953 469.944 619.519 469.944C620.201 469.944 620.767 469.779 621.215 469.448C621.663 469.107 621.887 468.616 621.887 467.976C621.887 467.613 621.817 467.315 621.679 467.08C621.54 466.835 621.3 466.616 620.959 466.424C620.628 466.232 620.143 466.04 619.503 465.848C618.372 465.507 617.545 465.096 617.023 464.616C616.5 464.136 616.239 463.485 616.239 462.664C616.239 462.109 616.383 461.613 616.671 461.176C616.969 460.739 617.38 460.397 617.903 460.152C618.436 459.907 619.039 459.784 619.711 459.784ZM628.797 462.376C629.981 462.376 630.899 462.771 631.549 463.56C632.211 464.349 632.541 465.421 632.541 466.776C632.541 467.651 632.392 468.424 632.093 469.096C631.795 469.757 631.363 470.275 630.797 470.648C630.232 471.011 629.56 471.192 628.781 471.192C627.597 471.192 626.675 470.797 626.013 470.008C625.352 469.219 625.021 468.147 625.021 466.792C625.021 465.917 625.171 465.149 625.469 464.488C625.768 463.816 626.2 463.299 626.765 462.936C627.331 462.563 628.008 462.376 628.797 462.376ZM628.797 463.56C627.336 463.56 626.605 464.637 626.605 466.792C626.605 468.936 627.331 470.008 628.781 470.008C630.232 470.008 630.957 468.931 630.957 466.776C630.957 464.632 630.237 463.56 628.797 463.56ZM641.245 471H639.981L639.869 469.688C639.549 470.211 639.181 470.595 638.765 470.84C638.349 471.075 637.842 471.192 637.245 471.192C636.509 471.192 635.933 470.968 635.517 470.52C635.101 470.072 634.893 469.437 634.893 468.616V462.568H636.365V468.456C636.365 469.032 636.466 469.443 636.669 469.688C636.872 469.923 637.202 470.04 637.661 470.04C638.482 470.04 639.186 469.555 639.773 468.584V462.568H641.245V471ZM648.542 470.616C647.987 471 647.358 471.192 646.654 471.192C645.939 471.192 645.379 470.989 644.974 470.584C644.579 470.168 644.382 469.571 644.382 468.792V463.704H642.91V462.568H644.382V460.664L645.854 460.488V462.568H647.854L647.694 463.704H645.854V468.728C645.854 469.165 645.928 469.485 646.078 469.688C646.238 469.88 646.499 469.976 646.862 469.976C647.192 469.976 647.566 469.864 647.982 469.64L648.542 470.616ZM654.035 462.376C654.803 462.376 655.4 462.605 655.827 463.064C656.264 463.523 656.483 464.152 656.483 464.952V471H655.011V465.16C655.011 464.563 654.894 464.141 654.659 463.896C654.435 463.651 654.104 463.528 653.667 463.528C653.23 463.528 652.84 463.656 652.499 463.912C652.158 464.168 651.838 464.531 651.539 465V471H650.067V459.192L651.539 459.032V463.736C652.2 462.829 653.032 462.376 654.035 462.376ZM666.476 459.784C667.212 459.784 667.842 459.891 668.364 460.104C668.887 460.307 669.394 460.627 669.884 461.064L669.052 461.992C668.636 461.661 668.226 461.421 667.82 461.272C667.426 461.112 666.999 461.032 666.54 461.032C665.964 461.032 665.49 461.165 665.116 461.432C664.743 461.699 664.556 462.088 664.556 462.6C664.556 462.92 664.62 463.192 664.748 463.416C664.876 463.629 665.111 463.827 665.452 464.008C665.804 464.189 666.311 464.381 666.972 464.584C667.666 464.797 668.242 465.027 668.7 465.272C669.159 465.517 669.527 465.859 669.804 466.296C670.092 466.723 670.236 467.267 670.236 467.928C670.236 468.568 670.076 469.133 669.756 469.624C669.447 470.115 668.994 470.499 668.396 470.776C667.81 471.053 667.111 471.192 666.3 471.192C664.775 471.192 663.527 470.717 662.556 469.768L663.388 468.84C663.836 469.203 664.29 469.48 664.748 469.672C665.207 469.853 665.719 469.944 666.284 469.944C666.967 469.944 667.532 469.779 667.98 469.448C668.428 469.107 668.652 468.616 668.652 467.976C668.652 467.613 668.583 467.315 668.444 467.08C668.306 466.835 668.066 466.616 667.724 466.424C667.394 466.232 666.908 466.04 666.268 465.848C665.138 465.507 664.311 465.096 663.788 464.616C663.266 464.136 663.004 463.485 663.004 462.664C663.004 462.109 663.148 461.613 663.436 461.176C663.735 460.739 664.146 460.397 664.668 460.152C665.202 459.907 665.804 459.784 666.476 459.784ZM676.363 462.376C677.131 462.376 677.728 462.605 678.155 463.064C678.592 463.523 678.811 464.152 678.811 464.952V471H677.339V465.16C677.339 464.563 677.222 464.141 676.987 463.896C676.763 463.651 676.432 463.528 675.995 463.528C675.558 463.528 675.168 463.656 674.827 463.912C674.486 464.168 674.166 464.531 673.867 465V471H672.395V459.192L673.867 459.032V463.736C674.528 462.829 675.36 462.376 676.363 462.376ZM684.938 462.376C686.122 462.376 687.039 462.771 687.69 463.56C688.351 464.349 688.682 465.421 688.682 466.776C688.682 467.651 688.533 468.424 688.234 469.096C687.935 469.757 687.503 470.275 686.938 470.648C686.373 471.011 685.701 471.192 684.922 471.192C683.738 471.192 682.815 470.797 682.154 470.008C681.493 469.219 681.162 468.147 681.162 466.792C681.162 465.917 681.311 465.149 681.61 464.488C681.909 463.816 682.341 463.299 682.906 462.936C683.471 462.563 684.149 462.376 684.938 462.376ZM684.938 463.56C683.477 463.56 682.746 464.637 682.746 466.792C682.746 468.936 683.471 470.008 684.922 470.008C686.373 470.008 687.098 468.931 687.098 466.776C687.098 464.632 686.378 463.56 684.938 463.56ZM694.778 462.376C695.076 462.376 695.354 462.408 695.61 462.472L695.338 463.912C695.082 463.848 694.836 463.816 694.602 463.816C694.079 463.816 693.658 464.008 693.338 464.392C693.018 464.776 692.767 465.373 692.586 466.184V471H691.114V462.568H692.378L692.522 464.28C692.746 463.651 693.05 463.176 693.434 462.856C693.818 462.536 694.266 462.376 694.778 462.376ZM703.169 466.536C703.169 466.781 703.159 467.032 703.137 467.288H697.761C697.825 468.216 698.06 468.899 698.465 469.336C698.871 469.773 699.393 469.992 700.033 469.992C700.439 469.992 700.812 469.933 701.153 469.816C701.495 469.699 701.852 469.512 702.225 469.256L702.865 470.136C701.969 470.84 700.988 471.192 699.921 471.192C698.748 471.192 697.831 470.808 697.169 470.04C696.519 469.272 696.193 468.216 696.193 466.872C696.193 465.997 696.332 465.224 696.609 464.552C696.897 463.869 697.303 463.336 697.825 462.952C698.359 462.568 698.983 462.376 699.697 462.376C700.817 462.376 701.676 462.744 702.273 463.48C702.871 464.216 703.169 465.235 703.169 466.536ZM701.713 466.104C701.713 465.272 701.548 464.637 701.217 464.2C700.887 463.763 700.391 463.544 699.729 463.544C698.524 463.544 697.868 464.429 697.761 466.2H701.713V466.104Z" fill="white"/>
<path d="M570.318 356.976L570.142 358.192H565.87V361.792H569.582V363.008H565.87V366.784H570.446V368H564.35V356.976H570.318ZM578.325 366.032C578.325 366.373 578.384 366.629 578.501 366.8C578.618 366.96 578.794 367.083 579.029 367.168L578.693 368.192C578.256 368.139 577.904 368.016 577.637 367.824C577.37 367.632 577.173 367.333 577.045 366.928C576.48 367.771 575.642 368.192 574.533 368.192C573.701 368.192 573.045 367.957 572.565 367.488C572.085 367.019 571.845 366.405 571.845 365.648C571.845 364.752 572.165 364.064 572.805 363.584C573.456 363.104 574.373 362.864 575.557 362.864H576.853V362.24C576.853 361.643 576.709 361.216 576.421 360.96C576.133 360.704 575.69 360.576 575.093 360.576C574.474 360.576 573.717 360.725 572.821 361.024L572.453 359.952C573.498 359.568 574.469 359.376 575.365 359.376C576.357 359.376 577.098 359.621 577.589 360.112C578.08 360.592 578.325 361.28 578.325 362.176V366.032ZM574.869 367.088C575.712 367.088 576.373 366.651 576.853 365.776V363.84H575.749C574.192 363.84 573.413 364.416 573.413 365.568C573.413 366.069 573.536 366.448 573.781 366.704C574.026 366.96 574.389 367.088 574.869 367.088ZM583.48 359.376C584.056 359.376 584.573 359.456 585.032 359.616C585.491 359.776 585.928 360.016 586.344 360.336L585.72 361.264C585.336 361.019 584.968 360.837 584.616 360.72C584.275 360.603 583.912 360.544 583.528 360.544C583.048 360.544 582.669 360.645 582.392 360.848C582.115 361.04 581.976 361.307 581.976 361.648C581.976 361.989 582.104 362.256 582.36 362.448C582.627 362.64 583.101 362.827 583.784 363.008C584.723 363.243 585.421 363.563 585.88 363.968C586.349 364.373 586.584 364.928 586.584 365.632C586.584 366.464 586.259 367.099 585.608 367.536C584.968 367.973 584.184 368.192 583.256 368.192C581.976 368.192 580.915 367.824 580.072 367.088L580.856 366.192C581.571 366.736 582.36 367.008 583.224 367.008C583.779 367.008 584.216 366.896 584.536 366.672C584.867 366.437 585.032 366.123 585.032 365.728C585.032 365.44 584.973 365.211 584.856 365.04C584.739 364.859 584.536 364.704 584.248 364.576C583.96 364.437 583.539 364.293 582.984 364.144C582.088 363.909 581.437 363.595 581.032 363.2C580.637 362.805 580.44 362.304 580.44 361.696C580.44 361.259 580.568 360.864 580.824 360.512C581.091 360.149 581.453 359.872 581.912 359.68C582.381 359.477 582.904 359.376 583.48 359.376ZM592.917 367.616C592.362 368 591.733 368.192 591.029 368.192C590.314 368.192 589.754 367.989 589.349 367.584C588.954 367.168 588.757 366.571 588.757 365.792V360.704H587.285V359.568H588.757V357.664L590.229 357.488V359.568H592.229L592.069 360.704H590.229V365.728C590.229 366.165 590.303 366.485 590.453 366.688C590.613 366.88 590.874 366.976 591.237 366.976C591.567 366.976 591.941 366.864 592.357 366.64L592.917 367.616ZM601.476 356.784C602.212 356.784 602.842 356.891 603.364 357.104C603.887 357.307 604.394 357.627 604.884 358.064L604.052 358.992C603.636 358.661 603.226 358.421 602.82 358.272C602.426 358.112 601.999 358.032 601.54 358.032C600.964 358.032 600.49 358.165 600.116 358.432C599.743 358.699 599.556 359.088 599.556 359.6C599.556 359.92 599.62 360.192 599.748 360.416C599.876 360.629 600.111 360.827 600.452 361.008C600.804 361.189 601.311 361.381 601.972 361.584C602.666 361.797 603.242 362.027 603.7 362.272C604.159 362.517 604.527 362.859 604.804 363.296C605.092 363.723 605.236 364.267 605.236 364.928C605.236 365.568 605.076 366.133 604.756 366.624C604.447 367.115 603.994 367.499 603.396 367.776C602.81 368.053 602.111 368.192 601.3 368.192C599.775 368.192 598.527 367.717 597.556 366.768L598.388 365.84C598.836 366.203 599.29 366.48 599.748 366.672C600.207 366.853 600.719 366.944 601.284 366.944C601.967 366.944 602.532 366.779 602.98 366.448C603.428 366.107 603.652 365.616 603.652 364.976C603.652 364.613 603.583 364.315 603.444 364.08C603.306 363.835 603.066 363.616 602.724 363.424C602.394 363.232 601.908 363.04 601.268 362.848C600.138 362.507 599.311 362.096 598.788 361.616C598.266 361.136 598.004 360.485 598.004 359.664C598.004 359.109 598.148 358.613 598.436 358.176C598.735 357.739 599.146 357.397 599.668 357.152C600.202 356.907 600.804 356.784 601.476 356.784ZM611.363 359.376C612.131 359.376 612.728 359.605 613.155 360.064C613.592 360.523 613.811 361.152 613.811 361.952V368H612.339V362.16C612.339 361.563 612.222 361.141 611.987 360.896C611.763 360.651 611.432 360.528 610.995 360.528C610.558 360.528 610.168 360.656 609.827 360.912C609.486 361.168 609.166 361.531 608.867 362V368H607.395V356.192L608.867 356.032V360.736C609.528 359.829 610.36 359.376 611.363 359.376ZM619.938 359.376C621.122 359.376 622.039 359.771 622.69 360.56C623.351 361.349 623.682 362.421 623.682 363.776C623.682 364.651 623.533 365.424 623.234 366.096C622.935 366.757 622.503 367.275 621.938 367.648C621.373 368.011 620.701 368.192 619.922 368.192C618.738 368.192 617.815 367.797 617.154 367.008C616.493 366.219 616.162 365.147 616.162 363.792C616.162 362.917 616.311 362.149 616.61 361.488C616.909 360.816 617.341 360.299 617.906 359.936C618.471 359.563 619.149 359.376 619.938 359.376ZM619.938 360.56C618.477 360.56 617.746 361.637 617.746 363.792C617.746 365.936 618.471 367.008 619.922 367.008C621.373 367.008 622.098 365.931 622.098 363.776C622.098 361.632 621.378 360.56 619.938 360.56ZM629.778 359.376C630.076 359.376 630.354 359.408 630.61 359.472L630.338 360.912C630.082 360.848 629.836 360.816 629.602 360.816C629.079 360.816 628.658 361.008 628.338 361.392C628.018 361.776 627.767 362.373 627.586 363.184V368H626.114V359.568H627.378L627.522 361.28C627.746 360.651 628.05 360.176 628.434 359.856C628.818 359.536 629.266 359.376 629.778 359.376ZM638.169 363.536C638.169 363.781 638.159 364.032 638.137 364.288H632.761C632.825 365.216 633.06 365.899 633.465 366.336C633.871 366.773 634.393 366.992 635.033 366.992C635.439 366.992 635.812 366.933 636.153 366.816C636.495 366.699 636.852 366.512 637.225 366.256L637.865 367.136C636.969 367.84 635.988 368.192 634.921 368.192C633.748 368.192 632.831 367.808 632.169 367.04C631.519 366.272 631.193 365.216 631.193 363.872C631.193 362.997 631.332 362.224 631.609 361.552C631.897 360.869 632.303 360.336 632.825 359.952C633.359 359.568 633.983 359.376 634.697 359.376C635.817 359.376 636.676 359.744 637.273 360.48C637.871 361.216 638.169 362.235 638.169 363.536ZM636.713 363.104C636.713 362.272 636.548 361.637 636.217 361.2C635.887 360.763 635.391 360.544 634.729 360.544C633.524 360.544 632.868 361.429 632.761 363.2H636.713V363.104Z" fill="white"/>
<path d="M594.378 75.784C595.039 75.784 595.594 75.8693 596.042 76.04C596.501 76.2107 596.965 76.488 597.434 76.872L596.602 77.848C595.93 77.304 595.221 77.032 594.474 77.032C593.557 77.032 592.815 77.384 592.25 78.088C591.695 78.792 591.418 79.9227 591.418 81.48C591.418 82.9947 591.695 84.1147 592.25 84.84C592.805 85.5547 593.541 85.912 594.458 85.912C594.927 85.912 595.338 85.832 595.69 85.672C596.042 85.512 596.415 85.288 596.81 85L597.562 85.96C597.221 86.312 596.783 86.6053 596.25 86.84C595.717 87.0747 595.103 87.192 594.41 87.192C593.514 87.192 592.714 86.9733 592.01 86.536C591.317 86.088 590.773 85.4373 590.378 84.584C589.994 83.72 589.802 82.6853 589.802 81.48C589.802 80.2747 590.005 79.2453 590.41 78.392C590.815 77.528 591.365 76.8773 592.058 76.44C592.751 76.0027 593.525 75.784 594.378 75.784ZM605.401 87H604.137L604.025 85.688C603.705 86.2107 603.337 86.5947 602.921 86.84C602.505 87.0747 601.999 87.192 601.401 87.192C600.665 87.192 600.089 86.968 599.673 86.52C599.257 86.072 599.049 85.4373 599.049 84.616V78.568H600.521V84.456C600.521 85.032 600.623 85.4427 600.825 85.688C601.028 85.9227 601.359 86.04 601.817 86.04C602.639 86.04 603.343 85.5547 603.929 84.584V78.568H605.401V87ZM612.106 78.376C612.405 78.376 612.682 78.408 612.938 78.472L612.666 79.912C612.41 79.848 612.165 79.816 611.93 79.816C611.407 79.816 610.986 80.008 610.666 80.392C610.346 80.776 610.095 81.3733 609.914 82.184V87H608.442V78.568H609.706L609.85 80.28C610.074 79.6507 610.378 79.176 610.762 78.856C611.146 78.536 611.594 78.376 612.106 78.376ZM618.278 78.376C618.576 78.376 618.854 78.408 619.11 78.472L618.838 79.912C618.582 79.848 618.336 79.816 618.102 79.816C617.579 79.816 617.158 80.008 616.838 80.392C616.518 80.776 616.267 81.3733 616.086 82.184V87H614.614V78.568H615.878L616.022 80.28C616.246 79.6507 616.55 79.176 616.934 78.856C617.318 78.536 617.766 78.376 618.278 78.376ZM626.669 82.536C626.669 82.7813 626.659 83.032 626.637 83.288H621.261C621.325 84.216 621.56 84.8987 621.965 85.336C622.371 85.7733 622.893 85.992 623.533 85.992C623.939 85.992 624.312 85.9333 624.653 85.816C624.995 85.6987 625.352 85.512 625.725 85.256L626.365 86.136C625.469 86.84 624.488 87.192 623.421 87.192C622.248 87.192 621.331 86.808 620.669 86.04C620.019 85.272 619.693 84.216 619.693 82.872C619.693 81.9973 619.832 81.224 620.109 80.552C620.397 79.8693 620.803 79.336 621.325 78.952C621.859 78.568 622.483 78.376 623.197 78.376C624.317 78.376 625.176 78.744 625.773 79.48C626.371 80.216 626.669 81.2347 626.669 82.536ZM625.213 82.104C625.213 81.272 625.048 80.6373 624.717 80.2C624.387 79.7627 623.891 79.544 623.229 79.544C622.024 79.544 621.368 80.4293 621.261 82.2H625.213V82.104ZM632.988 78.376C633.756 78.376 634.353 78.6053 634.78 79.064C635.217 79.5227 635.436 80.152 635.436 80.952V87H633.964V81.16C633.964 80.5627 633.852 80.1413 633.628 79.896C633.404 79.6507 633.073 79.528 632.636 79.528C632.188 79.528 631.793 79.656 631.452 79.912C631.111 80.168 630.791 80.536 630.492 81.016V87H629.02V78.568H630.284L630.412 79.816C630.711 79.368 631.079 79.016 631.516 78.76C631.964 78.504 632.455 78.376 632.988 78.376ZM642.651 86.616C642.096 87 641.467 87.192 640.763 87.192C640.048 87.192 639.488 86.9893 639.083 86.584C638.688 86.168 638.491 85.5707 638.491 84.792V79.704H637.019V78.568H638.491V76.664L639.963 76.488V78.568H641.963L641.803 79.704H639.963V84.728C639.963 85.1653 640.038 85.4853 640.187 85.688C640.347 85.88 640.608 85.976 640.971 85.976C641.302 85.976 641.675 85.864 642.091 85.64L642.651 86.616ZM650.011 75.976V85.672H654.539L654.363 87H648.491V75.976H650.011ZM659.141 78.376C660.325 78.376 661.242 78.7707 661.893 79.56C662.554 80.3493 662.885 81.4213 662.885 82.776C662.885 83.6507 662.736 84.424 662.437 85.096C662.138 85.7573 661.706 86.2747 661.141 86.648C660.576 87.0107 659.904 87.192 659.125 87.192C657.941 87.192 657.018 86.7973 656.357 86.008C655.696 85.2187 655.365 84.1467 655.365 82.792C655.365 81.9173 655.514 81.1493 655.813 80.488C656.112 79.816 656.544 79.2987 657.109 78.936C657.674 78.5627 658.352 78.376 659.141 78.376ZM659.141 79.56C657.68 79.56 656.949 80.6373 656.949 82.792C656.949 84.936 657.674 86.008 659.125 86.008C660.576 86.008 661.301 84.9307 661.301 82.776C661.301 80.632 660.581 79.56 659.141 79.56ZM668.389 78.376C668.89 78.376 669.349 78.4507 669.765 78.6C670.181 78.7387 670.581 78.968 670.965 79.288L670.261 80.216C669.962 80.0027 669.669 79.848 669.381 79.752C669.104 79.6453 668.794 79.592 668.453 79.592C667.77 79.592 667.237 79.864 666.853 80.408C666.48 80.952 666.293 81.7573 666.293 82.824C666.293 83.8907 666.48 84.68 666.853 85.192C667.226 85.6933 667.76 85.944 668.453 85.944C668.784 85.944 669.088 85.896 669.365 85.8C669.642 85.6933 669.952 85.528 670.293 85.304L670.965 86.264C670.197 86.8827 669.338 87.192 668.389 87.192C667.248 87.192 666.346 86.808 665.685 86.04C665.034 85.272 664.709 84.2107 664.709 82.856C664.709 81.96 664.858 81.176 665.157 80.504C665.456 79.832 665.877 79.3093 666.421 78.936C666.976 78.5627 667.632 78.376 668.389 78.376ZM678.481 85.032C678.481 85.3733 678.54 85.6293 678.657 85.8C678.775 85.96 678.951 86.0827 679.185 86.168L678.849 87.192C678.412 87.1387 678.06 87.016 677.793 86.824C677.527 86.632 677.329 86.3333 677.201 85.928C676.636 86.7707 675.799 87.192 674.689 87.192C673.857 87.192 673.201 86.9573 672.721 86.488C672.241 86.0187 672.001 85.4053 672.001 84.648C672.001 83.752 672.321 83.064 672.961 82.584C673.612 82.104 674.529 81.864 675.713 81.864H677.009V81.24C677.009 80.6427 676.865 80.216 676.577 79.96C676.289 79.704 675.847 79.576 675.249 79.576C674.631 79.576 673.873 79.7253 672.977 80.024L672.609 78.952C673.655 78.568 674.625 78.376 675.521 78.376C676.513 78.376 677.255 78.6213 677.745 79.112C678.236 79.592 678.481 80.28 678.481 81.176V85.032ZM675.025 86.088C675.868 86.088 676.529 85.6507 677.009 84.776V82.84H675.905C674.348 82.84 673.569 83.416 673.569 84.568C673.569 85.0693 673.692 85.448 673.937 85.704C674.183 85.96 674.545 86.088 675.025 86.088ZM685.76 86.616C685.206 87 684.576 87.192 683.872 87.192C683.158 87.192 682.598 86.9893 682.192 86.584C681.798 86.168 681.6 85.5707 681.6 84.792V79.704H680.128V78.568H681.6V76.664L683.072 76.488V78.568H685.072L684.912 79.704H683.072V84.728C683.072 85.1653 683.147 85.4853 683.296 85.688C683.456 85.88 683.718 85.976 684.08 85.976C684.411 85.976 684.784 85.864 685.2 85.64L685.76 86.616ZM688.758 78.568V87H687.286V78.568H688.758ZM688.006 74.52C688.315 74.52 688.566 74.616 688.758 74.808C688.95 75 689.046 75.24 689.046 75.528C689.046 75.816 688.95 76.056 688.758 76.248C688.566 76.4293 688.315 76.52 688.006 76.52C687.707 76.52 687.462 76.4293 687.27 76.248C687.078 76.056 686.982 75.816 686.982 75.528C686.982 75.24 687.078 75 687.27 74.808C687.462 74.616 687.707 74.52 688.006 74.52ZM694.969 78.376C696.153 78.376 697.071 78.7707 697.721 79.56C698.383 80.3493 698.713 81.4213 698.713 82.776C698.713 83.6507 698.564 84.424 698.265 85.096C697.967 85.7573 697.535 86.2747 696.969 86.648C696.404 87.0107 695.732 87.192 694.953 87.192C693.769 87.192 692.847 86.7973 692.185 86.008C691.524 85.2187 691.193 84.1467 691.193 82.792C691.193 81.9173 691.343 81.1493 691.641 80.488C691.94 79.816 692.372 79.2987 692.937 78.936C693.503 78.5627 694.18 78.376 694.969 78.376ZM694.969 79.56C693.508 79.56 692.777 80.6373 692.777 82.792C692.777 84.936 693.503 86.008 694.953 86.008C696.404 86.008 697.129 84.9307 697.129 82.776C697.129 80.632 696.409 79.56 694.969 79.56ZM705.113 78.376C705.881 78.376 706.478 78.6053 706.905 79.064C707.342 79.5227 707.561 80.152 707.561 80.952V87H706.089V81.16C706.089 80.5627 705.977 80.1413 705.753 79.896C705.529 79.6507 705.198 79.528 704.761 79.528C704.313 79.528 703.918 79.656 703.577 79.912C703.236 80.168 702.916 80.536 702.617 81.016V87H701.145V78.568H702.409L702.537 79.816C702.836 79.368 703.204 79.016 703.641 78.76C704.089 78.504 704.58 78.376 705.113 78.376Z" fill="white"/>
</svg>
